<svg version="1.1" viewBox="0 0 300 175" xml:space="preserve" xmlns="http://www.w3.org/2000/svg"><g transform="translate(36.12933 -66.0105)"><path d="m-3.656845 144.9452h13.07268q6.085558 0 9.691815-1.57774 3.606257-1.80313 5.409386-4.9586 2.028519-3.15548 2.704692-7.6633.676173-4.73321.676173-10.81877t-.676173-10.59338q-.676173-4.73321-2.930083-7.88869-2.02852-3.380863-5.860168-4.9586-3.831648-1.577738-10.1426-1.577738h-11.94573zm-22.98989-71.67436h36.96413q40.57039 0 40.57039 47.10673 0 13.97425-4.507821 24.11684-4.28243 9.91721-15.32659 16.00277l24.79302 73.25209h-24.34223l-21.41215-68.51888h-13.74885v68.51888h-22.98989zm96.01678 0h33.58326q11.04416 0 18.70746 3.380866 7.88869 3.380866 12.84729 9.015642t6.98712 13.07268q2.25391 7.21251 2.25391 15.1012v5.86017q0 6.53634-1.12695 11.04416-.90157 4.50782-2.93009 7.88869-2.02852 3.38086-4.9586 6.08556-2.93008 2.4793-6.76173 4.73321 8.11408 3.83165 11.94573 11.49494 3.83164 7.43791 3.83164 20.05981v9.01564q0 21.18676-10.36799 32.45631-10.14259 11.26955-32.6817 11.26955h-31.32936zm22.98989 137.4885h9.917208q6.98712 0 10.81877-2.02852 4.05704-2.02852 6.08556-5.63478t2.4793-8.56486.45078-10.81877q0-6.08556-.67617-10.59338t-2.93009-7.43791q-2.02851-3.15547-5.86016-4.73321t-10.1426-1.57774h-10.1426zm0-71.67436h10.36799q11.49494 0 15.32659-5.63478 4.05704-5.86016 4.05704-16.90433 0-10.81877-4.50782-16.22815-4.28243-5.409388-15.77737-5.409388h-9.466428zm146.0536 58.82706q0 7.43791-2.93008 14.19964-2.70469 6.76173-7.6633 11.94573-4.9586 4.9586-11.72033 8.11408-6.53634 2.93008-14.19964 2.93008-6.53634 0-13.29807-1.80313t-12.17112-6.08556q-5.40938-4.50782-9.01564-11.72033-3.38086-7.21252-3.38086-18.25668v-88.35329q0-7.88869 2.70469-14.65042 2.70469-6.761732 7.66329-11.72034 4.95861-4.958603 11.72034-7.663296 6.98712-2.930083 15.32659-2.930083 7.88869 0 14.65042 2.930083 6.76173 2.704693 11.72033 7.888687 4.95861 4.958604 7.6633 12.17112 2.93008 6.987128 2.93008 15.32659v9.01565h-22.98988v-7.6633q0-6.76173-3.83165-11.72033t-10.36799-4.958604q-8.56486 0-11.49494 5.409388-2.7047 5.18399-2.7047 13.29807v82.04234q0 6.98713 2.93009 11.72034 3.15547 4.73321 11.04416 4.73321 2.25391 0 4.73321-.67617 2.70469-.90157 4.73321-2.70469 2.25391-1.80313 3.60626-4.95861 1.35235-3.15547 1.35235-7.88868v-7.88869h22.98988z" fill="#000000" stroke-width="18.7826" style="white-space:pre" aria-label="RBC"/><path d="m225.9319 182.6367s-2.25548-13.88711-10.53344-20.9572c-8.27797-7.07008-17.64378-8.2574-17.64378-8.2574s12.04333-2.64343 18.73299-9.25805c6.68967-6.61462 9.43583-19.04347 9.43583-19.04347s1.68466 11.82125 10.20684 19.79022 18.12214 8.5113 18.12214 8.5113-9.40595 1.67082-17.69288 8.5858c-8.28694 6.91499-10.6277 20.6288-10.6277 20.6288z" fill="#3f43ff" fill-rule="evenodd" stroke-linejoin="round" stroke-width=".0910013" style="paint-order:stroke markers fill"/></g></svg>